<?xml version="1.0" encoding="UTF-8"?>
<svg xmlns="http://www.w3.org/2000/svg" width="118" height="40" viewBox="0 0 118 40" fill="none" class="navbar---logo">
  <path d="M31.6173 3.2694C31.5001 3.00151 31.3547 2.74767 31.1733 2.51185C30.5571 1.69022 29.7354 1.12877 28.7905 0.759029C26.7638 -0.0489132 24.6686 -0.185853 22.546 0.224966C20.4098 0.635784 18.6569 1.70391 17.2327 3.33349C16.3426 4.34684 15.6716 5.49713 15.1512 6.72959C14.8637 7.40059 14.5898 8.08529 14.4391 8.81107C14.2474 9.68748 14.0831 10.5502 13.9188 11.4266V11.4403C13.8914 11.5772 13.8366 11.6183 13.6997 11.6183H11.18C10.8924 11.6183 10.8239 11.6731 10.7691 11.947C10.7281 12.1524 10.6835 12.3578 10.639 12.5632C10.5945 12.7686 10.55 12.974 10.5089 13.1794C10.4405 13.4807 10.5911 13.6861 10.9061 13.7272C11.2284 13.762 11.5451 13.7581 11.8633 13.7541C12.0454 13.7519 12.228 13.7496 12.4124 13.7546C12.7 13.7683 12.7959 13.8778 12.7411 14.1517C12.7 14.364 12.6555 14.5762 12.611 14.7885C12.5665 15.0007 12.522 15.213 12.4809 15.4252C12.1933 16.8014 11.9092 18.1742 11.625 19.547C11.3409 20.9198 11.0567 22.2927 10.7691 23.669L10.7144 23.9155C10.2214 26.2708 9.74208 28.6262 9.26278 30.9816C9.01629 32.2003 8.74241 33.4054 8.33159 34.5694C8.01662 35.4184 7.6058 36.199 6.93479 36.8289C6.16792 37.5547 5.27781 37.9381 4.19598 37.719C3.14153 37.5136 2.41575 36.911 1.99123 35.9388C1.92276 35.7744 1.8406 35.6375 1.63518 35.6238C1.45716 35.6238 1.34761 35.7197 1.27914 35.8703C0.868316 36.6919 0.457493 37.5136 0.0603649 38.3489C-0.0628818 38.6091 0.00558857 38.8693 0.238388 39.0473C0.662904 39.3623 1.1285 39.6361 1.64888 39.7594C2.7581 40.0196 3.86732 40.0743 4.99023 39.8963C7.20867 39.5403 9.11215 38.5406 10.687 36.9384C11.7551 35.8703 12.5631 34.6241 13.2615 33.2958C14.1927 31.5156 14.8774 29.6259 15.384 27.6813C15.7893 26.1312 16.0896 24.5512 16.3904 22.9688C16.4961 22.4124 16.6019 21.8557 16.7124 21.2999C17.0319 19.7023 17.3393 18.1046 17.6466 16.5069C17.8003 15.7082 17.954 14.9094 18.1092 14.1106C18.1639 13.8094 18.2461 13.7546 18.5474 13.7546H20.5056C20.7658 13.7546 20.9849 13.5766 21.0397 13.3164C21.0808 13.1383 21.1184 12.9603 21.1561 12.7823C21.1938 12.6043 21.2314 12.4263 21.2725 12.2482C21.382 11.7416 21.2862 11.6046 20.7795 11.6046C20.0263 11.6046 19.3101 11.2267 18.8897 10.6009C18.2494 9.64648 18.5736 8.36342 18.8577 7.23927C18.9254 6.97143 18.9908 6.71261 19.0404 6.4694C19.3005 5.45605 19.6429 4.47009 20.2591 3.60737C21.2314 2.25167 22.5597 1.66283 24.203 1.85454C25.2438 1.9641 26.0243 2.52555 26.4762 3.49782C26.6787 3.94133 26.7997 4.40521 26.8775 4.8799C26.9273 5.18358 27.2376 5.37848 27.526 5.27115L31.3548 3.84622C31.5903 3.75858 31.7181 3.49956 31.6173 3.2694Z" fill="black"/>
  <path fill-rule="evenodd" clip-rule="evenodd" d="M46.6614 7.04409V19.218C46.6614 22.8469 46.6614 26.4758 46.7025 30.0773C46.6982 30.2994 46.7006 30.5229 46.703 30.7469V30.7475C46.7083 31.2413 46.7137 31.7375 46.6477 32.2273C46.4423 33.8158 44.8401 34.8702 43.2927 34.432C42.115 34.1033 41.3344 33.09 41.3344 31.8575V19.889C41.3344 18.6566 41.1975 17.4378 40.8551 16.2464C40.0883 13.5761 38.5135 11.6042 35.8568 10.6182C34.0629 9.9609 32.2005 9.86504 30.3244 10.1526C27.7362 10.5497 25.4493 11.5631 23.6554 13.535C22.7927 14.4662 22.2312 15.5617 22.0121 16.8216C21.9025 17.4241 22.0669 17.6295 22.6694 17.6295H25.8464C26.3805 17.6295 26.5311 17.4241 26.4901 16.9174C26.3531 15.2741 26.8324 13.8774 28.2292 12.8914C30.1464 11.5357 33.8164 11.7548 35.5145 14.5621C36.4456 16.1095 36.7469 17.8075 36.7606 19.574C36.7606 20.2177 36.5689 20.4505 35.9527 20.6011C35.3639 20.7449 34.7751 20.8818 34.1864 21.0187C33.5975 21.1556 33.0084 21.2926 32.4196 21.4364C30.2148 21.9842 28.0375 22.6141 26.0245 23.6959C23.7786 24.9147 22.2175 26.6401 22.0121 29.3241C21.8341 31.6932 22.5325 33.7062 24.4359 35.1851C26.2983 36.6367 28.4346 36.9243 30.6941 36.4724C33.2002 35.9794 35.0352 34.5005 36.3635 32.3642C36.3795 32.3385 36.3933 32.3084 36.4073 32.2777C36.4531 32.1776 36.501 32.0726 36.6374 32.104C36.778 32.1365 36.7648 32.2629 36.7531 32.3754C36.7499 32.4053 36.7469 32.4342 36.7469 32.46C36.788 34.4868 38.2943 35.9794 40.3074 35.9794H46.0178C47.5789 35.9657 48.8388 35.3358 49.7837 34.0896C50.0165 33.7884 50.126 33.7747 50.3999 34.0622C50.9203 34.61 51.4817 35.1167 52.1391 35.5001C54.1384 36.6367 56.3158 36.8832 58.5342 36.5682C62.3275 36.0342 65.1347 33.9664 67.0793 30.7072C68.3392 28.5847 68.928 26.2704 69.0923 23.8192C69.2567 21.4912 69.0239 19.2043 68.257 16.9859C67.5723 15.0277 66.4768 13.3433 64.8198 12.0698C63.245 10.851 61.4373 10.2759 59.4791 10.0705C57.3565 9.85135 55.453 10.3717 53.755 11.6453C53.0155 12.2067 52.3719 12.864 51.7967 13.5898L51.791 13.598C51.6964 13.7332 51.5872 13.8894 51.3859 13.8089C51.1668 13.7267 51.1531 13.5487 51.1531 13.357V1.56651C51.1531 0.785956 50.6327 0.388832 49.8658 0.580547C49.455 0.690098 49.0305 0.813344 48.6197 0.93659C47.8117 1.16939 47.0004 1.4056 46.189 1.64182C45.3776 1.87805 44.5662 2.11427 43.7583 2.34707C43.3201 2.48401 43.1147 2.70311 43.101 3.07284C43.0736 3.55213 43.3749 3.86709 43.9363 3.90818C44.306 3.93556 44.6758 3.97665 45.0455 4.0725C45.8535 4.29161 46.3465 4.82567 46.5245 5.64731C46.6203 6.1129 46.6614 6.57849 46.6614 7.04409ZM56.0145 13.3707C56.3979 13.3022 56.7814 13.2885 57.1785 13.2885C59.7119 13.3159 61.451 14.6168 62.6561 16.7531C63.601 18.3827 64.0255 20.1766 64.2309 22.0253C64.4363 23.8329 64.4363 25.6405 64.1077 27.4344C63.738 29.4063 63.0532 31.2139 61.6975 32.7476C59.2737 35.4727 55.2613 35.0208 53.2346 32.7476C52.1391 31.5152 51.5502 30.0499 51.29 28.4477C51.1805 27.763 51.1531 27.0646 51.1531 26.3662C51.159 25.6151 51.1573 24.8639 51.1556 24.1127C51.1534 23.1111 51.1511 22.1094 51.1668 21.1078C51.1805 19.7932 51.2489 18.4785 51.6461 17.2187C51.9063 16.3697 52.276 15.5754 52.8785 14.9181C53.7276 13.9869 54.8231 13.5898 56.0145 13.3707ZM36.7606 23.1619V25.6131C36.7527 25.8804 36.7517 26.1601 36.7505 26.4494V26.45C36.7477 27.1681 36.7447 27.9447 36.6374 28.7353C36.1992 31.6247 33.0358 33.9664 30.0642 33.583C28.3525 33.3639 26.983 31.9397 26.805 30.1595C26.6955 29.105 26.7502 28.078 27.1748 27.1057C27.6267 26.0239 28.4757 25.2981 29.4754 24.7504C30.968 23.9287 32.6113 23.4905 34.2683 23.0934C34.8845 22.9428 35.5145 22.7921 36.1307 22.6552C36.61 22.5456 36.7606 22.6552 36.7606 23.1619Z" fill="black"/>
  <path d="M114.464 15.7673C114.244 15.7673 114.025 15.7658 113.808 15.7642C113.376 15.7612 112.947 15.7582 112.519 15.7673C112.232 15.781 112.067 15.6714 111.944 15.4112C111.561 14.5622 111.081 13.768 110.356 13.1791C108.754 11.8782 106.987 11.9193 105.207 12.6861C103.605 13.3845 102.632 14.6992 101.934 16.2603C100.975 18.4102 100.797 20.6697 100.907 22.984C101.003 24.8738 101.386 26.7087 102.249 28.4205C103.454 30.7895 105.357 32.2822 108.014 32.7341C110.561 33.1723 112.738 32.4054 114.628 30.6937C115.244 30.1322 115.779 29.4886 116.244 28.8039C116.477 28.4616 116.901 28.3383 117.23 28.5163C117.586 28.6944 117.737 29.0778 117.572 29.4749C116.354 32.4191 114.437 34.7334 111.396 35.9385C108.63 37.034 105.864 36.8286 103.166 35.692C100.044 34.3774 98.1132 31.9261 97.1135 28.7628C95.8674 24.8327 96.0043 20.9299 97.675 17.1504C99.2635 13.5352 101.906 11.0703 105.85 10.2486C108.726 9.64609 111.479 10.0158 113.985 11.6591C115.299 12.5218 116.272 13.6721 116.806 15.1648C116.984 15.6577 116.901 15.781 116.367 15.781C115.751 15.7673 115.108 15.7673 114.464 15.7673Z" fill="black"/>
  <path d="M94.262 3.2376C94.2894 1.47108 92.8652 0.0742986 91.0302 0.0606047C89.2499 0.0469107 87.8668 1.40261 87.8394 3.19652C87.8121 4.97673 89.1952 6.4009 90.9891 6.42829C92.7967 6.45568 94.2346 5.05889 94.262 3.2376Z" fill="black"/>
  <path d="M95.4342 34.4323H95.8341C96.2819 34.4323 96.642 34.8171 96.6297 35.2525C96.6174 35.688 96.2367 36.0235 95.8012 36.0235H85.8374C85.3663 36.0235 84.9884 35.6346 85.0034 35.1635C85.0158 34.7692 85.3033 34.4432 85.6909 34.3693C87.3136 34.0584 88.5406 32.6329 88.5406 30.9198L88.5516 12.7822C88.5516 11.2484 89.7977 10.016 91.3178 10.016C92.4951 10.016 93.9253 10.016 94.9936 10.0242C95.2842 10.0264 95.5017 10.2905 95.4495 10.5764L95.2224 11.8217C95.1817 12.0449 94.9855 12.2012 94.7627 12.2439C93.8216 12.424 93.0964 13.2437 93.0843 14.2337V32.0824C93.0843 33.3806 94.136 34.4323 95.4342 34.4323Z" fill="black"/>
  <path d="M85.9222 10.0165C86.3193 10.0713 86.6206 10.4136 86.6206 10.8107L86.622 10.8094V13.6029C86.622 14.1781 86.0605 14.5752 85.5127 14.3835C84.6226 14.0685 83.6777 13.8905 82.7191 13.9316C82.4138 13.9439 82.1125 13.9823 81.8181 14.0439C79.2874 14.5766 77.5099 16.8648 77.4935 19.4516L77.4237 30.8957C77.4127 32.6088 78.6301 34.0425 80.2487 34.3643C80.6459 34.4438 80.9375 34.782 80.9375 35.1873C80.9375 35.6488 80.5623 36.024 80.1008 36.024H70.0795C69.6317 36.024 69.2716 35.6392 69.2839 35.2038C69.2962 34.7683 69.6769 34.4328 70.1124 34.4328H70.4972C71.794 34.4328 72.8471 33.3811 72.8471 32.0843L72.858 16.48C72.858 16.0829 72.858 15.6858 72.7759 15.2887C72.6115 14.467 72.1323 13.933 71.338 13.6591C70.9272 13.5358 70.5164 13.4674 70.0918 13.44C69.7495 13.4126 69.4893 13.262 69.3524 12.9196C69.2428 12.6183 69.3113 12.3582 69.4893 12.1117C69.6125 11.9473 69.7906 11.8789 69.9823 11.8241C70.8727 11.5671 71.7631 11.3076 72.6546 11.0477C73.8061 10.712 74.9595 10.3758 76.1172 10.0439C76.8019 9.85217 77.3771 10.2767 77.3771 11.0162V14.5766C77.3771 14.6051 77.3746 14.6356 77.3721 14.6665C77.3615 14.7991 77.3501 14.9404 77.5277 14.9737C77.7109 15.0195 77.7697 14.8834 77.824 14.7576C77.8347 14.7329 77.8452 14.7086 77.8564 14.6861C78.3904 13.5632 79.0341 12.5225 79.9516 11.6735C81.0197 10.6875 82.2933 10.1671 83.7311 10.0028C84.4706 9.92064 85.1964 9.92064 85.9222 10.0165Z" fill="black"/>
</svg>
